<svg width="20" height="20" viewBox="0 0 20 20" fill="none" xmlns="http://www.w3.org/2000/svg">
<g clip-path="url(#clip0)">
<path d="M18 13.1V13.5C18 16.5 15.5998 19 12.4998 19H11.7998C11.5998 19.6 11.0998 20 10.3998 20H9.39981C8.59981 20 7.89981 19.3 7.89981 18.5C7.89981 17.7 8.59981 17 9.39981 17H10.3998C10.9998 17 11.5998 17.4 11.7998 18H12.4998C14.5998 18 16.6 16.5 17 14.5C16.6 14.7 15.9998 15 15.4998 15C14.1998 15 13 13.9 13 12.6V8.10001C13 6.80001 14.1998 6 15.4998 6C15.9998 6 16.6 6.09999 17 6.39999V5.5C17 3 14.9998 1 12.3998 1H7.2998C4.7998 1 2.99981 2.9 2.99981 5.5V6.39999C3.39981 6.09999 3.99981 6 4.49981 6C5.79981 6 7 6.90001 7 8.10001V12.6C7 13.9 5.79981 15 4.49981 15C3.39981 15 2.2 14 2 13C1 13 0 12 0 11V10C0 9 1 8 2 8L1.99981 5.5C1.99981 2.5 4.1998 0 7.2998 0H12.3998C15.3998 0 18 2.4 18 5.5V8C19 8 20 9 20 10V11C20.1 11.9 19 13.1 18 13.1ZM10.4998 17.9H9.39981C9.09981 17.9 8.89981 18.1 8.89981 18.4C8.89981 18.7 9.09981 18.9 9.39981 18.9H10.4998C10.7998 18.9 10.9998 18.7 10.9998 18.4C10.9998 18.1 10.7998 17.9 10.4998 17.9ZM2.99981 12.6C2.99981 13.4 3.79981 13.9 4.49981 13.9C5.29981 13.9 5.99981 13.4 5.99981 12.6L6 8.5C6 7.5 5.29981 7 4.49981 7C3.69981 7 2.99981 7.5 2.99981 8.5V12.6ZM2 9C1.5 9 0.999805 9.5 0.999805 10V11C0.999805 11.5 1.5 12 2 12V9ZM16.9998 9.89999V8.5C16.9998 7.5 16.3 7 15.5 7C14.7 7 13.9998 7.5 13.9998 8.5V12.5C13.9998 13.3 14.7998 13.8 15.4998 13.8C16.2998 13.8 16.9998 13.3 16.9998 12.5V9.89999ZM19 10C19 9.5 18.5 9 18 9V9.89999V12C18.5 12 19 11.5 19 11V10Z" fill="#444444"/>
</g>
<defs>
<clipPath id="clip0">
<rect width="20" height="20" fill="white"/>
</clipPath>
</defs>
</svg>
